<svg width="40" height="42" viewBox="0 0 40 42" fill="none" xmlns="http://www.w3.org/2000/svg">
<path fill-rule="evenodd" clip-rule="evenodd" d="M1.28946 22.9705C-0.429818 24.6816 -0.429819 27.4558 1.28946 29.1669L9.78158 37.6185H2.57891C1.3632 37.6185 0.377673 38.5993 0.377673 39.8093C0.377673 41.0192 1.3632 42 2.57891 42H37.7988C39.0145 42 40 41.0192 40 39.8093C40 38.5993 39.0145 37.6185 37.7988 37.6185H17.7015L38.6457 16.7742C40.365 15.0631 40.365 12.2889 38.6457 10.5778L29.3067 1.28331C27.5874 -0.427769 24.7999 -0.42777 23.0806 1.28331L1.28946 22.9705ZM10.8116 19.6902L4.40248 26.0687L13.7416 35.3633L20.1507 28.9847L10.8116 19.6902ZM13.9246 16.592L23.2637 25.8865L35.5327 13.676L26.1936 4.38148L13.9246 16.592Z" fill="black"/>
</svg>
