<svg width="46" height="45" viewBox="0 0 46 45" fill="none" xmlns="http://www.w3.org/2000/svg">
<path d="M45.1852 4.90264C45.1852 3.80874 44.7452 2.80996 43.9629 2.04899L43.8652 1.95389C42.2518 0.38439 39.6606 0.384343 38.0472 1.90629L14.1887 23.4513C10.9619 22.7855 7.49072 23.6416 5.0462 26.0672C1.67276 29.3013 1.77055 32.9159 1.81944 35.1037C1.81944 35.3891 1.81944 35.6744 1.81944 35.9122C1.77055 37.672 0.84163 39.8123 0.450507 40.5257C0.206055 41.0013 0.157166 41.572 0.352727 42.0476C0.548289 42.5708 0.93941 42.9513 1.42831 43.1415C3.72616 44.0928 6.02401 44.5208 8.22407 44.5208C12.0864 44.5208 15.7532 43.094 18.5399 40.383C20.8378 38.1476 22.1089 35.4366 22.1089 32.7257C22.1089 32.0598 22.0112 31.4415 21.9134 30.8232L44.0118 7.70879C44.7452 6.94782 45.1852 5.94897 45.1852 4.90264ZM15.7532 37.6721C12.8687 40.4781 8.90854 41.3817 4.75286 40.2403C5.19287 39.0513 5.63288 37.4818 5.68178 35.9598C5.68178 35.6745 5.68178 35.3415 5.68178 35.0086C5.63288 33.0586 5.584 30.8708 7.78406 28.7781C10.1308 26.4952 13.9931 26.4952 16.3888 28.7781C17.5621 29.9196 18.1977 31.2988 18.1977 32.7257C18.1977 34.3903 17.3177 36.1501 15.7532 37.6721ZM41.2251 5.04534L41.1762 5.09295L20.1044 27.1135C19.8111 26.733 19.5177 26.4001 19.1755 26.0672C18.8333 25.7342 18.4422 25.4489 18.0999 25.1636L40.7851 4.66483L40.834 4.61734C40.9317 4.52222 41.0784 4.52222 41.1762 4.61734L41.274 4.71244C41.3229 4.76 41.3229 4.80758 41.3229 4.85514C41.274 4.95027 41.274 4.99778 41.2251 5.04534Z" fill="#ace63c"/>
</svg>
