<svg width="43" height="45" viewBox="0 0 43 45" fill="none" xmlns="http://www.w3.org/2000/svg">
<path fill-rule="evenodd" clip-rule="evenodd" d="M33.4444 7.10526V4.73684C33.4444 2.12076 31.3054 0 28.6667 0H14.3333C11.6946 0 9.55556 2.12076 9.55556 4.73684V7.10526H2.38889C1.06954 7.10526 0 8.16564 0 9.47368C0 10.7817 1.06954 11.8421 2.38889 11.8421H4.77778V37.8947C4.77778 41.8189 7.9864 45 11.9444 45H31.0556C35.0136 45 38.2222 41.8189 38.2222 37.8947V11.8421H40.6111C41.9305 11.8421 43 10.7817 43 9.47368C43 8.16564 41.9305 7.10526 40.6111 7.10526H33.4444ZM28.6667 4.73684H14.3333V7.10526H28.6667V4.73684ZM33.4444 11.8421H9.55556V37.8947C9.55556 39.2028 10.6251 40.2632 11.9444 40.2632H31.0556C32.3749 40.2632 33.4444 39.2028 33.4444 37.8947V11.8421Z" fill="black"/>
</svg>
